<mxfile host="app.diagrams.net" agent="Mozilla/5.0 (Windows NT 10.0; Win64; x64) AppleWebKit/537.36 (KHTML, like Gecko) Chrome/130.0.0.0 Safari/537.36" version="24.7.17">
  <diagram name="Strona-1" id="9CpGlOA5-iMMN9rdjXMl">
    <mxGraphModel dx="1623" dy="814" grid="1" gridSize="10" guides="1" tooltips="1" connect="1" arrows="1" fold="1" page="1" pageScale="1" pageWidth="1169" pageHeight="827" math="0" shadow="0">
      <root>
        <mxCell id="0" />
        <mxCell id="1" parent="0" />
        <mxCell id="dMZQlT_5sBbUOD00GrJl-1" value="Nauczyciel" style="shape=umlActor;verticalLabelPosition=bottom;verticalAlign=top;html=1;" vertex="1" parent="1">
          <mxGeometry x="80" y="440" width="30" height="60" as="geometry" />
        </mxCell>
        <mxCell id="dMZQlT_5sBbUOD00GrJl-6" value="Uczeń" style="shape=umlActor;verticalLabelPosition=bottom;verticalAlign=top;html=1;" vertex="1" parent="1">
          <mxGeometry x="80" y="570" width="30" height="60" as="geometry" />
        </mxCell>
        <mxCell id="dMZQlT_5sBbUOD00GrJl-7" value="Niezalogowany użytkownik" style="shape=umlActor;verticalLabelPosition=bottom;verticalAlign=top;html=1;" vertex="1" parent="1">
          <mxGeometry x="80" y="170" width="30" height="60" as="geometry" />
        </mxCell>
        <mxCell id="dMZQlT_5sBbUOD00GrJl-8" value="Dowolny zalogowany użytkownik" style="shape=umlActor;verticalLabelPosition=bottom;verticalAlign=top;html=1;" vertex="1" parent="1">
          <mxGeometry x="80" y="310" width="30" height="60" as="geometry" />
        </mxCell>
        <mxCell id="dMZQlT_5sBbUOD00GrJl-9" value="Użytkownik nieposiadający konta" style="shape=umlActor;verticalLabelPosition=bottom;verticalAlign=top;html=1;" vertex="1" parent="1">
          <mxGeometry x="80" y="40" width="30" height="60" as="geometry" />
        </mxCell>
        <mxCell id="dMZQlT_5sBbUOD00GrJl-13" value="Administrator" style="shape=umlActor;verticalLabelPosition=bottom;verticalAlign=top;html=1;" vertex="1" parent="1">
          <mxGeometry x="80" y="700" width="30" height="60" as="geometry" />
        </mxCell>
        <mxCell id="dMZQlT_5sBbUOD00GrJl-16" value="PU1 - Rejestracja" style="ellipse;whiteSpace=wrap;html=1;" vertex="1" parent="1">
          <mxGeometry x="300" y="35" width="140" height="70" as="geometry" />
        </mxCell>
        <mxCell id="dMZQlT_5sBbUOD00GrJl-18" value="" style="endArrow=none;html=1;edgeStyle=orthogonalEdgeStyle;rounded=0;entryX=0;entryY=0.5;entryDx=0;entryDy=0;" edge="1" parent="1" source="dMZQlT_5sBbUOD00GrJl-9" target="dMZQlT_5sBbUOD00GrJl-16">
          <mxGeometry relative="1" as="geometry">
            <mxPoint x="140" y="70" as="sourcePoint" />
            <mxPoint x="340" y="130" as="targetPoint" />
          </mxGeometry>
        </mxCell>
        <mxCell id="dMZQlT_5sBbUOD00GrJl-21" value="&amp;lt;&amp;lt;include&amp;gt;&amp;gt;" style="html=1;verticalAlign=bottom;labelBackgroundColor=none;endArrow=open;endFill=0;dashed=1;rounded=0;exitX=0.5;exitY=1;exitDx=0;exitDy=0;" edge="1" parent="1" source="dMZQlT_5sBbUOD00GrJl-16">
          <mxGeometry width="160" relative="1" as="geometry">
            <mxPoint x="400" y="110" as="sourcePoint" />
            <mxPoint x="370" y="180" as="targetPoint" />
            <Array as="points" />
          </mxGeometry>
        </mxCell>
        <mxCell id="dMZQlT_5sBbUOD00GrJl-22" value="PU2 - logowanie" style="ellipse;whiteSpace=wrap;html=1;" vertex="1" parent="1">
          <mxGeometry x="300" y="180" width="140" height="70" as="geometry" />
        </mxCell>
        <mxCell id="dMZQlT_5sBbUOD00GrJl-23" value="" style="endArrow=none;html=1;edgeStyle=orthogonalEdgeStyle;rounded=0;entryX=0;entryY=0.5;entryDx=0;entryDy=0;" edge="1" parent="1">
          <mxGeometry relative="1" as="geometry">
            <mxPoint x="110" y="214.41" as="sourcePoint" />
            <mxPoint x="300" y="214.41" as="targetPoint" />
          </mxGeometry>
        </mxCell>
        <mxCell id="dMZQlT_5sBbUOD00GrJl-24" value="PU3 - wylogowanie" style="ellipse;whiteSpace=wrap;html=1;" vertex="1" parent="1">
          <mxGeometry x="200" y="310" width="140" height="70" as="geometry" />
        </mxCell>
        <mxCell id="dMZQlT_5sBbUOD00GrJl-25" value="&amp;lt;&amp;lt;include&amp;gt;&amp;gt;" style="html=1;verticalAlign=bottom;labelBackgroundColor=none;endArrow=open;endFill=0;dashed=1;rounded=0;exitX=0.5;exitY=1;exitDx=0;exitDy=0;entryX=0.5;entryY=0;entryDx=0;entryDy=0;" edge="1" parent="1" target="dMZQlT_5sBbUOD00GrJl-24">
          <mxGeometry width="160" relative="1" as="geometry">
            <mxPoint x="369.41" y="250" as="sourcePoint" />
            <mxPoint x="369.41" y="325" as="targetPoint" />
            <Array as="points" />
          </mxGeometry>
        </mxCell>
        <mxCell id="dMZQlT_5sBbUOD00GrJl-26" value="" style="endArrow=none;html=1;edgeStyle=orthogonalEdgeStyle;rounded=0;entryX=0;entryY=0.5;entryDx=0;entryDy=0;" edge="1" parent="1" target="dMZQlT_5sBbUOD00GrJl-27">
          <mxGeometry relative="1" as="geometry">
            <mxPoint x="140" y="469.40999999999997" as="sourcePoint" />
            <mxPoint x="320" y="469.40999999999974" as="targetPoint" />
            <Array as="points">
              <mxPoint x="300" y="469" />
            </Array>
          </mxGeometry>
        </mxCell>
        <mxCell id="dMZQlT_5sBbUOD00GrJl-27" value="PU4 - Tworzenie nowych klas" style="ellipse;whiteSpace=wrap;html=1;" vertex="1" parent="1">
          <mxGeometry x="300" y="435" width="140" height="70" as="geometry" />
        </mxCell>
        <mxCell id="dMZQlT_5sBbUOD00GrJl-28" value="&amp;lt;&amp;lt;include&amp;gt;&amp;gt;" style="html=1;verticalAlign=bottom;labelBackgroundColor=none;endArrow=open;endFill=0;dashed=1;rounded=0;exitX=0.5;exitY=1;exitDx=0;exitDy=0;entryX=0.5;entryY=0;entryDx=0;entryDy=0;" edge="1" parent="1" source="dMZQlT_5sBbUOD00GrJl-22" target="dMZQlT_5sBbUOD00GrJl-27">
          <mxGeometry width="160" relative="1" as="geometry">
            <mxPoint x="379.41" y="260" as="sourcePoint" />
            <mxPoint x="280" y="340" as="targetPoint" />
            <Array as="points" />
          </mxGeometry>
        </mxCell>
        <mxCell id="dMZQlT_5sBbUOD00GrJl-29" value="" style="endArrow=none;html=1;edgeStyle=orthogonalEdgeStyle;rounded=0;entryX=0;entryY=0.5;entryDx=0;entryDy=0;" edge="1" parent="1" target="dMZQlT_5sBbUOD00GrJl-24">
          <mxGeometry relative="1" as="geometry">
            <mxPoint x="120" y="345" as="sourcePoint" />
            <mxPoint x="210" y="340" as="targetPoint" />
          </mxGeometry>
        </mxCell>
        <mxCell id="dMZQlT_5sBbUOD00GrJl-30" value="PU5 - Dołączenie do klasy poprzez Kod" style="ellipse;whiteSpace=wrap;html=1;" vertex="1" parent="1">
          <mxGeometry x="300" y="565" width="140" height="70" as="geometry" />
        </mxCell>
        <mxCell id="dMZQlT_5sBbUOD00GrJl-32" value="" style="endArrow=none;html=1;edgeStyle=orthogonalEdgeStyle;rounded=0;entryX=0;entryY=0.5;entryDx=0;entryDy=0;" edge="1" parent="1" target="dMZQlT_5sBbUOD00GrJl-30">
          <mxGeometry relative="1" as="geometry">
            <mxPoint x="120" y="600" as="sourcePoint" />
            <mxPoint x="290" y="594.4699999999998" as="targetPoint" />
          </mxGeometry>
        </mxCell>
        <mxCell id="dMZQlT_5sBbUOD00GrJl-33" value="" style="endArrow=none;html=1;rounded=0;exitX=0;exitY=0.5;exitDx=0;exitDy=0;" edge="1" parent="1" source="dMZQlT_5sBbUOD00GrJl-30">
          <mxGeometry width="50" height="50" relative="1" as="geometry">
            <mxPoint x="160" y="550" as="sourcePoint" />
            <mxPoint x="140" y="470" as="targetPoint" />
          </mxGeometry>
        </mxCell>
        <mxCell id="dMZQlT_5sBbUOD00GrJl-34" value="&amp;lt;&amp;lt;include&amp;gt;&amp;gt;" style="html=1;verticalAlign=bottom;labelBackgroundColor=none;endArrow=open;endFill=0;dashed=1;rounded=0;exitX=0.5;exitY=1;exitDx=0;exitDy=0;" edge="1" parent="1" source="dMZQlT_5sBbUOD00GrJl-27" target="dMZQlT_5sBbUOD00GrJl-30">
          <mxGeometry width="160" relative="1" as="geometry">
            <mxPoint x="380" y="260" as="sourcePoint" />
            <mxPoint x="380" y="445" as="targetPoint" />
            <Array as="points" />
          </mxGeometry>
        </mxCell>
        <mxCell id="dMZQlT_5sBbUOD00GrJl-35" value="PU6 - Edycja danych" style="ellipse;whiteSpace=wrap;html=1;" vertex="1" parent="1">
          <mxGeometry x="490" y="690" width="140" height="70" as="geometry" />
        </mxCell>
        <mxCell id="dMZQlT_5sBbUOD00GrJl-38" value="" style="endArrow=none;html=1;edgeStyle=orthogonalEdgeStyle;rounded=0;entryX=0;entryY=0.5;entryDx=0;entryDy=0;" edge="1" parent="1" target="dMZQlT_5sBbUOD00GrJl-35">
          <mxGeometry relative="1" as="geometry">
            <mxPoint x="120" y="724.44" as="sourcePoint" />
            <mxPoint x="300" y="724.44" as="targetPoint" />
          </mxGeometry>
        </mxCell>
        <mxCell id="dMZQlT_5sBbUOD00GrJl-39" value="&amp;lt;&amp;lt;include&amp;gt;&amp;gt;" style="html=1;verticalAlign=bottom;labelBackgroundColor=none;endArrow=open;endFill=0;dashed=1;rounded=0;exitX=0.5;exitY=0;exitDx=0;exitDy=0;entryX=1;entryY=0.5;entryDx=0;entryDy=0;" edge="1" parent="1" source="dMZQlT_5sBbUOD00GrJl-35" target="dMZQlT_5sBbUOD00GrJl-27">
          <mxGeometry width="160" relative="1" as="geometry">
            <mxPoint x="380" y="515" as="sourcePoint" />
            <mxPoint x="380" y="575" as="targetPoint" />
            <Array as="points" />
          </mxGeometry>
        </mxCell>
      </root>
    </mxGraphModel>
  </diagram>
</mxfile>
